<svg width="1024" height="1024" viewBox="0 0 1024 1024" fill="none" xmlns="http://www.w3.org/2000/svg">
<g clip-path="url(#clip0_1766_42982)">
<rect width="1024" height="1024" fill="#7443DF"/>
<path d="M660.046 190.295C682.326 190.296 701.419 198.316 716.797 214.106C728.722 226.41 736.107 240.876 738.686 257.193C740.87 258.825 742.931 260.543 744.897 262.307C756.648 273.024 764.459 286.442 767.955 301.877C768.566 304.479 769.003 307.1 769.353 309.791C781.233 323.993 787.276 341.144 787.276 360.769C787.276 362.644 787.162 364.537 787.024 366.438C787.152 368.403 787.276 370.391 787.276 372.408C787.276 375.275 787.101 378.198 786.795 381.109C786.681 382.199 786.498 383.282 786.337 384.372C786.872 388.23 787.276 392.124 787.276 396.057C787.276 397.91 787.178 399.81 787.047 401.75C788.051 404.877 788.751 408.048 789.362 411.307C790.28 416.335 790.806 421.516 790.806 426.765C790.806 428.684 790.693 430.596 790.554 432.503C790.696 434.456 790.806 436.424 790.806 438.404C790.806 441.75 790.56 445.077 790.142 448.378C792.496 456.002 793.786 463.831 793.786 471.749C793.786 473.736 793.676 475.757 793.534 477.719C793.55 477.942 793.542 478.167 793.557 478.39C796.774 480.764 799.854 483.452 802.725 486.351C805.652 489.262 808.371 492.442 810.861 495.838C821.212 509.863 826.447 526.01 826.447 543.738C826.447 545.547 826.372 547.344 826.241 549.13C826.389 551.189 826.47 553.273 826.47 555.378C826.47 558.993 826.15 562.564 825.714 566.092C825.657 566.542 825.545 566.986 825.485 567.434C825.494 567.503 825.521 567.573 825.53 567.642C826.055 571.39 826.401 575.19 826.401 579.027C826.401 581.084 826.307 583.119 826.172 585.136C826.315 586.969 826.424 588.813 826.424 590.666C826.424 597.542 825.68 604.199 824.109 610.59C824.013 611.016 823.849 611.438 823.743 611.863C823.795 612.149 823.876 612.433 823.926 612.719C824.756 617.57 825.232 622.598 825.232 627.714C825.232 629.723 825.11 631.729 824.957 633.73C825.082 635.592 825.232 637.464 825.232 639.353C825.232 643.212 824.912 647.07 824.361 650.877C824.92 654.855 825.232 658.907 825.232 663.003C825.232 664.935 825.135 666.847 825.003 668.742C825.132 670.697 825.232 672.664 825.232 674.642C825.232 681.963 824.271 689.022 822.436 695.769C820.645 702.297 817.978 708.577 814.483 714.443C811.074 731.729 802.639 746.501 789.316 758.363C774.334 771.724 756.606 778.47 736.646 778.472C735.029 778.472 733.576 778.424 732.222 778.38C722.525 781.996 713.047 783.863 703.961 783.864C682.162 783.864 663.245 775.915 647.692 760.215C639.435 751.878 633.405 742.566 629.516 732.377C626.066 723.38 624.268 713.725 624.268 703.405C624.268 701.428 624.37 699.451 624.52 697.482C624.395 695.598 624.268 693.696 624.268 691.766C624.268 688.305 624.517 684.84 624.955 681.422C624.222 680.13 623.526 678.837 622.87 677.512C622.783 677.379 622.728 677.202 622.64 677.026C621.943 675.529 621.211 673.984 620.6 672.444C616.756 677.605 612.206 682.274 606.963 686.421C604.735 702.476 597.882 716.736 586.61 728.999C585.827 729.833 585.123 730.661 584.341 731.451C583.904 731.848 583.45 732.211 583.057 732.608C581.357 734.236 579.666 735.83 577.923 737.283C563.683 749.102 546.942 755.099 528.071 755.101C517.415 755.101 506.923 752.941 496.877 748.621C478.265 746.46 462.04 738.465 448.584 724.88C434.346 710.546 426.742 692.987 425.824 672.745C425.04 671.952 424.342 671.105 423.601 670.269C421.154 667.542 418.845 664.724 416.84 661.753C417.278 665.318 417.527 668.937 417.527 672.606C417.527 674.424 417.392 676.234 417.275 678.021C417.418 680.085 417.527 682.171 417.527 684.269C417.526 694.055 415.827 703.402 412.553 712.176C411.898 713.895 411.185 715.617 410.399 717.336C408.522 721.391 406.35 725.323 403.775 729.114C403.382 729.688 403.022 730.323 402.629 730.896C402.628 731.374 402.538 731.852 402.537 732.331C401.751 749.354 396.161 764.709 385.897 777.94C381.179 792.805 372.474 805.518 360.066 815.751C345.607 827.657 329.224 833.708 309.917 833.708C290.609 833.707 273.445 827.479 258.942 815.219C253.352 810.501 248.546 805.21 244.571 799.391C240.726 793.833 237.65 787.779 235.334 781.295C232.541 779.488 229.912 777.463 227.381 775.348C223.627 772.219 220.141 768.818 216.998 765.028C215.207 762.912 213.55 760.656 211.978 758.363C210.274 755.893 208.772 753.378 207.417 750.82C204.098 744.602 201.611 738.106 200.083 731.359L200.969 734.866C199.659 729.133 198.295 719.858 198.295 713.772C198.295 711.804 198.372 709.834 198.501 707.872C198.369 705.976 198.295 704.064 198.295 702.133C198.295 698.044 198.578 693.95 199.143 689.915C198.594 686.129 198.295 682.307 198.295 678.484C198.295 676.529 198.421 674.613 198.547 672.722C198.399 670.765 198.295 668.806 198.295 666.844C198.295 661.86 198.721 657.082 199.464 652.451C199.944 649.5 200.558 646.593 201.343 643.773C203.248 637.062 206.04 630.738 209.64 624.821C209.635 624.463 209.618 624.093 209.618 623.734V623.178C209.618 621.212 209.681 619.254 209.801 617.324C209.675 615.586 209.595 613.842 209.595 612.094V611.516C209.595 608.655 209.729 605.824 209.984 603.047C209.776 602.624 209.542 602.205 209.343 601.774C205.762 594.189 203.448 586.206 202.444 577.916C202.05 574.696 201.825 571.388 201.825 568.035C201.825 566.212 201.936 564.392 202.077 562.574C201.919 560.539 201.825 558.476 201.825 556.396C201.825 552.529 202.209 548.663 202.787 544.849C202.509 542.798 202.307 540.735 202.146 538.671C202.014 536.686 201.825 534.732 201.825 532.747C201.825 530.575 201.914 528.486 202.077 526.36C201.954 524.603 201.825 522.872 201.825 521.107C201.825 518.858 201.925 516.694 202.1 514.489C202.537 508.843 203.623 503.279 205.24 497.898C205.5 497.064 205.67 496.186 205.973 495.352V494.588C205.973 492.121 206.099 489.653 206.317 487.23C206.492 485.642 206.672 484.053 206.89 482.509L206.913 482.347C206.542 479.962 206.257 477.582 206.111 475.197C205.98 473.788 205.973 472.325 205.973 470.916C205.973 469.24 206.023 467.598 206.111 466.01C206.136 465.522 206.169 465.037 206.202 464.552C206.177 464.215 206.131 463.872 206.111 463.534C205.98 462.125 205.973 460.662 205.973 459.253C205.973 457.582 206.024 455.954 206.111 454.371C207.247 432.628 216.157 414.676 232.056 401.796C233.76 400.429 235.518 399.095 237.397 397.816C237.484 397.51 237.608 397.246 237.695 396.983C237.782 396.63 237.908 396.274 238.039 395.965C238.083 381.763 241.376 368.757 247.711 357.113C248.803 355.172 249.882 353.224 251.149 351.328C251.411 337.743 254.86 325.123 261.326 313.655C262.723 311.186 264.227 308.773 265.887 306.436C269.469 301.451 273.436 296.891 277.805 292.922C282.17 288.912 286.935 285.441 292.085 282.532C292.215 282.269 292.344 282.034 292.474 281.814C293.347 280.096 294.267 278.375 295.271 276.7C300.467 268.015 307.159 260.74 315.28 254.787C319.387 251.743 323.816 249.051 328.665 246.757C332.423 240.979 336.62 235.895 341.294 231.485C352.084 221.343 365.315 214.935 380.603 212.51C385.233 211.76 390.04 211.376 395.019 211.376C411.709 211.376 426.699 216.138 439.806 225.445C442.47 227.341 445.088 229.376 447.621 231.67C455.221 238.593 461.341 246.524 465.797 255.342L465.843 255.435C466.061 255.876 466.289 256.361 466.508 256.846C467.731 259.36 468.824 261.929 469.785 264.575C478.431 268.765 486.12 274.582 492.889 281.768C493.806 282.739 494.766 283.669 495.639 284.684C499.396 289.138 502.624 293.814 505.289 298.753C506.074 300.206 506.7 301.699 507.397 303.196C509.014 306.813 510.5 310.535 511.592 314.373C513.165 312.52 514.864 310.747 516.611 309.027C518.445 304.136 520.711 299.508 523.373 295.189C523.416 295.146 523.51 295.004 523.51 295.004C523.684 294.697 523.909 294.435 524.083 294.171C528.539 287.203 534.083 281.019 540.723 275.682C541.815 272.287 543.087 269.025 544.528 265.894C551.868 249.706 563.889 237.166 580.055 228.962C582.933 227.51 585.9 226.194 589.039 225.005C592.402 222.448 595.908 220.161 599.445 218.133C603.071 213.722 607.084 209.82 611.409 206.424C620.453 199.322 630.816 194.526 642.306 192.1C647.985 190.909 653.886 190.295 660.046 190.295Z" fill="#3B0D8F"/>
<path d="M222.762 743.934C228.966 753.02 236.874 760.298 246.267 765.591C249.937 778.515 256.971 789.454 267.326 798.143C279.428 808.332 293.714 813.537 309.879 813.537C326.044 813.537 339.675 808.509 351.733 798.584C362.787 789.454 370.258 778.074 374.059 764.709C384.326 752.359 389.525 737.715 389.525 721.13V719.454C399.399 707.103 404.379 692.944 404.379 677.33C404.379 661.715 400.01 648.174 391.36 636.882C401.583 624.841 406.782 610.461 406.782 593.921C406.782 586.995 405.69 580.114 403.505 573.41C406.738 581.746 411.719 589.113 418.403 595.508C417.355 600.228 416.831 605.124 416.831 610.152C416.831 630.398 424.389 647.468 438.806 659.995C438.806 660.569 438.806 661.142 438.806 661.759C438.806 680.109 445.185 695.9 457.811 708.603C469.564 720.468 483.806 727.261 500.19 728.76C509.146 732.907 518.496 734.98 527.976 734.98C546.151 734.98 561.967 728.319 574.986 715.219C586.913 703.177 593.423 688.798 594.428 672.346C612.821 659.863 622.476 641.028 622.476 617.386C622.476 609.182 621.078 601.331 618.239 593.921C619.986 592.421 621.646 590.833 623.219 589.201C625.753 595.685 629.336 601.684 634.054 607.109C629.86 616.107 627.763 625.546 627.763 635.383C627.763 649.938 632.088 663.171 640.651 674.904C638.423 681.697 637.287 688.93 637.287 696.605C637.287 714.999 643.884 730.966 656.86 744.066C669.836 757.167 685.651 763.827 703.87 763.827C712.127 763.827 720.952 761.93 730.04 758.181C731.875 758.357 734.015 758.401 736.549 758.401C753.239 758.401 768.049 752.756 780.588 741.596C792.297 731.187 799.462 718.13 801.996 702.692C808.68 692.327 812.088 680.594 812.088 667.758C812.088 651.923 807.501 638.117 798.37 626.517C808.287 614.475 813.268 600.184 813.268 583.776C813.268 568.955 808.899 555.458 800.292 543.769C794.438 535.874 787.447 529.566 779.409 524.979C780.195 520.833 780.632 516.466 780.632 511.79C780.632 502.439 778.797 493.485 775.127 485.105C776.787 479.282 777.661 473.151 777.661 466.799C777.661 453.655 774.253 441.525 767.525 430.586C771.894 421.368 774.078 411.399 774.078 400.813C774.078 382.993 768.224 367.776 756.646 355.425C755.074 333.9 744.719 316.566 726.326 304.789C725.059 288.998 718.68 275.104 707.365 263.459C694.52 250.27 678.574 243.61 659.962 243.61C638.467 243.61 620.554 252.211 607.928 268.575C603.603 270.869 599.365 273.604 595.345 276.824C572.714 284.763 557.86 300.863 552.049 323.667C540.34 332.004 532.258 343.031 527.889 356.572C521.117 362.571 515.874 369.584 512.204 377.524C508.971 373.157 505.083 369.099 500.627 365.438C498.704 353.484 493.724 342.722 485.685 333.371C478.258 324.682 469.345 318.33 459.078 314.36C455.627 301.657 448.855 290.63 438.806 281.499C426.442 270.296 411.719 264.606 394.986 264.606C369.733 264.606 349.986 275.853 337.665 297.202C320.889 304.215 308.962 315.948 302.102 332.136C291.923 337.164 283.316 344.53 276.5 354.102C268.374 365.57 264.224 378.671 264.224 393.006V395.52C255.529 407.121 251.161 420.794 251.161 436.232V438.57C250.199 440.819 249.282 443.422 248.364 446.465C229.185 457.801 219.093 475.93 219.093 499.263C219.093 508.659 221.059 517.48 224.947 525.552C218.306 536.359 214.942 548.268 214.942 561.015C214.942 573.763 218.393 585.849 225.253 596.611C223.549 602.522 222.675 609.094 222.675 616.195C222.675 627.708 225.296 638.426 230.452 648.042C230.627 651.438 231.02 654.79 231.675 658.143C218.219 670.846 211.36 687.166 211.36 706.75C211.36 720.248 215.248 732.774 222.893 743.934H222.762ZM399.267 541.122C399.049 543.328 398.962 545.533 398.962 547.783C398.962 555.678 400.054 563 402.195 569.749C401.714 568.514 401.19 567.235 400.622 566C400.01 558.722 398.219 551.797 395.248 545.18C396.646 543.857 398 542.534 399.267 541.122Z" fill="#A366FF"/>
<path d="M309.874 774.339C295.282 774.339 282.394 769.664 271.515 760.489C261.51 752.064 254.913 741.302 251.855 728.51C242.243 723.614 234.292 716.601 228.132 707.559C221.272 697.502 217.777 686.254 217.777 674.124C217.777 655.202 224.855 639.632 238.792 627.899C237.568 623.135 236.913 618.371 236.826 613.607C231.67 604.609 229.093 594.508 229.093 583.57C229.093 575.895 230.185 568.97 232.326 562.927C225.03 552.561 221.36 540.961 221.36 528.346C221.36 515.73 225.073 503.821 232.413 493.235C227.826 485.163 225.51 476.209 225.51 466.549C225.51 444.539 235.034 428.307 253.821 418.206C255.044 413.663 256.311 410.09 257.622 407.356V403.562C257.622 388.874 262.035 375.95 270.685 365.144V360.38C270.685 347.412 274.399 335.635 281.695 325.314C288.335 315.963 296.899 308.905 307.078 304.362C313.326 287.954 325.078 276.353 342.117 269.825C353.258 249.094 370.996 238.552 394.894 238.552C409.967 238.552 423.248 243.669 434.345 253.725C444.263 262.768 450.729 273.839 453.481 286.719C464.098 290.159 473.185 296.334 480.656 305.024C488.389 314.066 493.02 324.608 494.418 336.341C503.418 343.222 509.884 351.514 513.729 361.174C516.438 347.721 523.078 336.473 533.52 327.74C537.54 314.022 545.666 303.039 557.768 295.055C562.661 272.604 576.336 257.475 598.486 250.064C602.899 246.492 607.486 243.492 612.205 241.154C623.695 225.496 639.729 217.6 659.914 217.6C676.69 217.6 691.064 223.599 702.598 235.464C713.608 246.8 719.418 260.43 719.899 276.044C739.166 287.204 749.346 303.877 750.176 325.666C761.666 337.002 767.477 351.294 767.477 368.187C767.477 379.038 764.943 389.183 759.918 398.357C767.302 409.032 771.059 421.029 771.059 434.174C771.059 440.702 770.055 447.009 768.088 452.92C772.021 461.124 774.03 469.946 774.03 479.164C774.03 485.251 773.287 490.853 771.802 495.837C780.933 500.116 788.71 506.556 795.045 515.113C802.821 525.655 806.753 537.785 806.753 551.15C806.753 567.867 800.987 582.158 789.627 593.803C800.2 605.05 805.574 618.945 805.574 635.133C805.574 647.086 802.297 658.025 795.787 667.596C793.734 682.064 787.181 694.282 776.302 703.986C765.03 714.043 751.661 719.159 736.632 719.159C733.53 719.159 731.083 719.027 729.161 718.806C720.292 722.644 711.816 724.585 703.952 724.585C687.569 724.585 673.326 718.586 661.574 706.765C649.865 694.944 643.923 680.564 643.923 663.979C643.923 655.819 645.321 648.145 648.117 641.131C639.03 629.884 634.399 617.004 634.399 602.801C634.399 592.524 636.977 582.687 642.045 573.424C633.394 564.691 628.064 554.193 626.229 542.107C622.341 548.635 617.011 554.37 610.326 559.31C614.083 567.205 616.006 575.762 616.006 584.76C616.006 607.52 606.613 624.723 588.088 636.015C587.87 652.202 581.928 666.273 570.438 677.918C558.729 689.739 544.443 695.738 528.059 695.738C519.19 695.738 510.409 693.709 501.976 689.651C486.685 688.504 473.447 682.329 462.525 671.301C451.209 659.877 445.442 645.674 445.442 629.134C445.442 627.325 445.486 625.737 445.574 624.37C430.894 612.902 423.467 597.155 423.467 577.571C423.467 571.704 424.253 566.058 425.87 560.677C412.457 549.297 405.641 533.991 405.641 515.201C405.641 506.247 407.389 497.822 410.797 490.103C409.049 488.207 407.476 486.222 406.035 484.149C402.54 494.823 396.248 503.777 387.205 510.967C391.399 518.465 393.758 526.581 394.326 535.138C398.345 543.651 400.355 552.473 400.355 561.427C400.355 578.188 394.413 592.524 382.705 604.168C392.84 615.107 397.996 628.737 397.996 644.792C397.996 659.569 393.015 672.934 383.141 684.49V688.548C383.141 703.986 378.161 717.571 368.287 728.951C365.01 741.611 358.107 752.329 347.753 760.886C336.874 769.84 324.204 774.383 310.049 774.383L309.874 774.339Z" fill="white"/>
<path d="M659.87 224.261C674.899 224.261 687.569 229.554 697.88 240.14C708.191 250.726 713.346 263.43 713.346 278.25V280.059C733.53 290.468 743.666 306.656 743.666 328.666C755.157 339.076 760.88 352.264 760.88 368.276C760.88 379.479 757.909 389.668 751.967 398.887C760.268 409.297 764.463 421.074 764.463 434.262C764.463 441.055 763.283 447.451 760.88 453.449C765.249 461.433 767.433 470.034 767.433 479.253C767.433 487.237 766.035 494.073 763.283 499.631C773.987 503.248 782.768 509.732 789.715 519.127C796.618 528.522 800.113 539.241 800.113 551.238C800.113 568.441 793.385 582.644 779.929 593.847C792.598 604.654 798.933 618.46 798.933 635.221C798.933 646.425 795.744 656.437 789.409 665.215C787.836 678.8 781.982 690.092 771.89 699.09C761.797 708.088 750.001 712.588 736.545 712.588C732.569 712.588 729.817 712.367 728.244 711.97C719.506 715.984 711.424 717.969 703.865 717.969C689.186 717.969 676.647 712.676 666.118 702.09C655.632 691.504 650.39 678.8 650.39 663.98C650.39 655.202 652.181 647.174 655.72 639.985C645.802 629.178 640.865 616.784 640.865 602.801C640.865 591.995 644.011 581.805 650.39 572.19C638.113 561.78 631.953 548.415 631.953 532.007C631.953 524.817 633.525 517.628 636.715 510.394C633.525 508.806 630.555 506.203 627.802 502.586V503.204L627.191 504.395C627.191 505.189 627.278 506.203 627.496 507.394C627.671 508.585 627.802 509.6 627.802 510.394C627.802 530.772 619.064 546.386 601.676 557.193C606.831 565.574 609.409 574.792 609.409 584.805C609.409 606.418 600.103 622.209 581.491 632.178V635.177C581.491 649.953 576.249 662.657 565.763 673.287C555.278 683.873 542.695 689.166 528.016 689.166C519.715 689.166 511.588 687.181 503.637 683.167C489.394 682.373 477.205 676.86 467.113 666.67C457.02 656.481 451.952 643.999 451.952 629.178C451.952 625.561 452.127 623.003 452.564 621.371C437.491 610.961 429.977 596.361 429.977 577.571C429.977 570.778 431.156 564.383 433.559 558.384C419.317 547.974 412.152 533.595 412.152 515.202C412.152 505.586 414.336 496.808 418.705 488.825C411.584 482.032 406.821 474.445 404.462 466.02H403.851C403.457 465.623 403.064 465.403 402.671 465.403C401.885 484.59 393.758 499.19 378.292 509.203C384.234 517.583 387.38 526.802 387.817 536.815C391.792 544.842 393.758 553.003 393.758 561.427C393.758 578.63 386.812 592.833 372.962 604.036C385.239 614.446 391.399 628.031 391.399 644.837C391.399 658.819 386.462 671.214 376.545 682.02V688.637C376.545 703.016 371.783 715.41 362.302 725.82C359.506 737.818 353.302 747.83 343.603 755.814C333.904 763.798 322.719 767.812 310.049 767.812C297.38 767.812 285.583 763.709 275.884 755.505C266.185 747.301 260.156 736.803 257.753 724.012C247.836 719.601 239.841 712.896 233.68 703.898C227.52 694.9 224.462 685.02 224.462 674.213C224.462 655.82 231.802 641.22 246.438 630.413C244.428 624.414 243.467 618.416 243.467 612.417V611.799C238.312 603.419 235.734 594.024 235.734 583.614C235.734 575.233 237.132 568 239.884 562.001C231.977 552.032 228.001 540.829 228.001 528.39C228.001 515.951 232.151 503.998 240.496 493.588C234.947 485.605 232.195 476.606 232.195 466.594C232.195 446.216 241.282 431.616 259.545 422.794C261.117 416.398 262.69 411.811 264.307 408.988V403.607C264.307 389.624 268.676 377.627 277.37 367.614V360.424C277.37 348.824 280.647 338.414 287.156 329.24C293.71 320.065 302.098 313.449 312.409 309.435C317.957 292.63 329.448 281.249 346.88 275.251C356.753 255.27 372.831 245.257 395.025 245.257C408.482 245.257 420.19 249.756 430.064 258.754C439.938 267.752 445.88 278.868 447.889 292.056C458.986 294.835 468.292 300.657 475.807 309.435C483.321 318.257 487.472 328.446 488.302 340.046C502.545 350.059 510.278 363.424 511.457 380.229C513.817 376.612 516.394 373.436 519.19 370.614C520.37 354.205 527.098 341.237 539.375 331.621C542.957 317.639 551.04 306.832 563.754 299.246C567.729 277.236 580.399 262.856 601.763 256.063C606.525 252.05 611.462 248.874 616.618 246.448C626.928 231.671 641.39 224.261 660.001 224.261M659.87 211.029C638.375 211.029 620.462 219.63 607.836 235.994C603.511 238.288 599.273 241.022 595.254 244.242C572.622 252.182 557.768 268.282 551.957 291.086C540.249 299.422 532.166 310.449 527.797 323.991C521.025 329.99 515.783 337.003 512.113 344.942C508.88 340.576 504.991 336.518 500.535 332.857C498.613 320.903 493.632 310.141 485.593 300.79C478.166 292.1 469.253 285.749 458.986 281.779C455.535 269.076 448.763 258.048 438.715 248.918C426.351 237.714 411.627 232.024 394.894 232.024C369.642 232.024 349.894 243.272 337.574 264.621C320.797 271.634 308.87 283.367 302.011 299.555C291.831 304.583 283.224 311.949 276.409 321.521C268.282 332.989 264.132 346.089 264.132 360.424V362.939C255.438 374.539 251.069 388.213 251.069 403.651V405.989C250.108 408.238 249.19 410.841 248.273 413.884C229.093 425.22 219.001 443.349 219.001 466.682C219.001 476.077 220.967 484.899 224.855 492.971C218.214 503.777 214.85 515.687 214.85 528.434C214.85 541.181 218.302 553.267 225.161 564.03C223.457 569.94 222.583 576.512 222.583 583.614C222.583 595.126 225.205 605.845 230.36 615.46C230.535 618.857 230.928 622.209 231.583 625.561C218.127 638.264 211.268 654.541 211.268 674.169C211.268 687.666 215.156 700.193 222.802 711.397C229.006 720.483 236.913 727.761 246.307 733.054C249.977 745.978 257.011 756.917 267.365 765.606C279.467 775.795 293.753 781 309.918 781C326.083 781 339.715 775.972 351.773 766.047C362.826 756.917 370.297 745.537 374.098 732.172C384.365 719.821 389.564 705.177 389.564 688.592V686.916C399.438 674.566 404.419 660.407 404.419 644.793C404.419 629.178 400.05 615.637 391.399 604.345C401.622 592.303 406.821 577.924 406.821 561.383C406.821 554.458 405.729 547.577 403.545 540.873C406.778 549.209 411.758 556.575 418.443 562.971C417.394 567.691 416.87 572.587 416.87 577.615C416.87 597.861 424.428 614.931 438.846 627.458C438.846 628.031 438.846 628.605 438.846 629.222C438.846 647.571 445.224 663.362 457.851 676.066C469.603 687.931 483.846 694.724 500.229 696.223C509.186 700.369 518.535 702.443 528.016 702.443C546.19 702.443 562.006 695.782 575.025 682.682C586.953 670.64 593.462 656.261 594.467 639.808C612.86 627.326 622.516 608.491 622.516 584.849C622.516 576.645 621.118 568.793 618.278 561.383C620.025 559.884 621.686 558.296 623.258 556.664C625.792 563.148 629.375 569.146 634.093 574.572C629.899 583.57 627.802 593.009 627.802 602.845C627.802 617.401 632.127 630.634 640.691 642.367C638.462 649.159 637.326 656.393 637.326 664.024C637.326 682.417 643.924 698.385 656.899 711.485C669.875 724.585 685.691 731.245 703.909 731.245C712.166 731.245 720.992 729.349 730.079 725.644C731.914 725.776 734.055 725.864 736.589 725.864C753.278 725.864 768.089 720.218 780.628 709.059C792.336 698.649 799.501 685.593 802.035 670.155C808.72 659.79 812.128 648.057 812.128 635.221C812.128 619.386 807.54 605.58 798.409 593.979C808.327 581.938 813.307 567.647 813.307 551.238C813.307 536.418 808.938 522.921 800.331 511.232C794.477 503.336 787.487 497.029 779.448 492.397C780.234 488.251 780.671 483.884 780.671 479.209C780.671 469.858 778.836 460.904 775.166 452.523C776.827 446.701 777.7 440.57 777.7 434.218C777.7 421.074 774.293 408.944 767.564 398.005C771.933 388.786 774.118 378.818 774.118 368.232C774.118 350.412 768.263 335.194 756.686 322.844C755.113 301.319 744.759 283.984 726.365 272.207C725.098 256.416 718.72 242.522 707.404 230.877C694.56 217.689 678.613 211.029 660.001 211.029H659.87ZM395.287 512.643C396.685 511.32 398.04 509.997 399.307 508.585C399.088 510.791 399.001 512.996 399.001 515.246C399.001 523.141 400.093 530.463 402.234 537.212C401.753 535.977 401.229 534.698 400.661 533.462C400.05 526.185 398.258 519.259 395.287 512.643Z" fill="#A366FF"/>
<path d="M416.84 661.753C418.845 664.724 421.154 667.542 423.601 670.269C424.342 671.105 425.04 671.952 425.824 672.745C426.742 692.987 434.346 710.546 448.584 724.88C462.04 738.465 478.265 746.46 496.877 748.621C506.294 752.671 516.104 754.824 526.073 755.078L528.071 755.101C545.761 755.099 561.58 749.829 575.221 739.433L577.923 737.283C578.794 736.557 579.653 735.795 580.506 735.012L583.057 732.608L584.341 731.451L586.61 728.999C597.882 716.736 604.735 702.476 606.963 686.421C612.206 682.274 616.756 677.605 620.6 672.444C621.211 673.984 621.943 675.529 622.64 677.026C622.728 677.202 622.783 677.379 622.87 677.512C623.526 678.837 624.222 680.13 624.955 681.422C624.517 684.84 624.268 688.305 624.268 691.766C624.268 693.696 624.395 695.598 624.52 697.482C624.37 699.451 624.268 701.428 624.268 703.405C624.268 713.725 626.066 723.38 629.516 732.377C633.405 742.566 639.435 751.878 647.692 760.215C662.273 774.934 679.81 782.84 699.907 783.771L703.961 783.864C713.047 783.863 722.525 781.996 732.222 778.38L736.646 778.472C756.606 778.47 774.334 771.724 789.316 758.363C802.639 746.501 811.074 731.729 814.483 714.443C817.541 709.31 819.965 703.86 821.724 698.204L822.436 695.769C824.042 689.864 824.981 683.721 825.19 677.372L825.232 674.642C825.232 672.664 825.132 670.697 825.003 668.742C825.135 666.847 825.232 664.935 825.232 663.003C825.232 658.907 824.92 654.855 824.361 650.877C824.912 647.07 825.232 643.212 825.232 639.353C825.232 637.464 825.082 635.592 824.957 633.73C825.034 632.729 825.102 631.726 825.151 630.723L825.232 627.714C825.232 623.878 824.967 620.089 824.483 616.389L823.926 612.719C823.876 612.433 823.795 612.149 823.743 611.863C823.849 611.438 824.013 611.016 824.109 610.59C825.484 604.998 826.227 599.202 826.391 593.234L826.424 590.666C826.424 588.813 826.315 586.969 826.172 585.136C826.307 583.119 826.401 581.084 826.401 579.027C826.401 575.19 826.055 571.39 825.53 567.642C825.521 567.573 825.494 567.503 825.485 567.434C825.545 566.986 825.657 566.542 825.714 566.092C826.15 562.564 826.47 558.993 826.47 555.378C826.47 553.273 826.389 551.189 826.241 549.13C826.307 548.237 826.356 547.34 826.391 546.442L826.447 543.738C826.447 527.117 821.843 511.889 812.739 498.494L810.861 495.838C808.371 492.442 805.652 489.262 802.725 486.351C799.854 483.452 796.774 480.764 793.557 478.39C793.542 478.167 793.55 477.942 793.534 477.719C793.676 475.757 793.786 473.736 793.786 471.749C793.786 463.831 792.496 456.002 790.142 448.378C790.56 445.077 790.806 441.75 790.806 438.404C790.806 436.424 790.696 434.456 790.554 432.503C790.624 431.549 790.687 430.594 790.732 429.637L790.806 426.765C790.806 422.829 790.508 418.932 789.973 415.108L789.362 411.307C788.751 408.048 788.051 404.877 787.047 401.75C787.113 400.781 787.173 399.821 787.214 398.873L787.276 396.057C787.276 392.124 786.872 388.23 786.337 384.372L786.795 381.109C787.101 378.198 787.276 375.275 787.276 372.408C787.276 370.391 787.152 368.403 787.024 366.438C787.093 365.489 787.155 364.541 787.201 363.597L787.276 360.769C787.276 341.144 781.233 323.993 769.353 309.791C769.003 307.1 768.566 304.479 767.955 301.877C764.459 286.442 756.648 273.024 744.897 262.307C742.931 260.543 740.87 258.825 738.686 257.193C736.107 240.876 728.722 226.41 716.797 214.106C702.38 199.302 684.697 191.325 664.184 190.386L660.046 190.295C653.886 190.295 647.985 190.909 642.306 192.1C630.816 194.526 620.453 199.322 611.409 206.424L609.803 207.719C606.087 210.801 602.618 214.273 599.445 218.133C595.908 220.161 592.402 222.448 589.039 225.005C585.9 226.194 582.933 227.51 580.055 228.962C563.889 237.166 551.868 249.706 544.528 265.894L543.477 268.267C542.461 270.663 541.542 273.137 540.723 275.682C534.083 281.019 528.539 287.203 524.083 294.171L523.51 295.004L523.373 295.189C520.711 299.508 518.445 304.136 516.611 309.027C514.864 310.747 513.165 312.52 511.592 314.373C510.5 310.535 509.014 306.813 507.397 303.196C506.7 301.699 506.074 300.206 505.289 298.753C502.624 293.814 499.396 289.138 495.639 284.684L492.889 281.768C486.12 274.582 478.431 268.765 469.785 264.575C468.824 261.929 467.731 259.36 466.508 256.846C466.289 256.361 466.061 255.876 465.843 255.435L465.797 255.342C461.341 246.524 455.221 238.593 447.621 231.67C445.088 229.376 442.47 227.341 439.806 225.445C426.699 216.138 411.709 211.376 395.019 211.376C390.04 211.376 385.233 211.76 380.603 212.51C365.315 214.935 352.084 221.343 341.294 231.485C336.62 235.895 332.423 240.979 328.665 246.757C323.816 249.051 319.387 251.743 315.28 254.787L312.302 257.081C305.509 262.581 299.818 269.101 295.271 276.7C294.267 278.375 293.347 280.096 292.474 281.814C292.344 282.034 292.215 282.269 292.085 282.532C286.935 285.441 282.17 288.912 277.805 292.922L276.189 294.435C272.452 298.036 269.022 302.073 265.887 306.436C264.227 308.773 262.723 311.186 261.326 313.655C254.86 325.123 251.411 337.743 251.149 351.328C249.882 353.224 248.803 355.172 247.711 357.113C241.376 368.757 238.083 381.763 238.039 395.965C237.908 396.274 237.782 396.63 237.695 396.983C237.608 397.246 237.484 397.51 237.397 397.816C235.518 399.095 233.76 400.429 232.056 401.796C216.157 414.676 207.247 432.628 206.111 454.371C206.024 455.954 205.973 457.582 205.973 459.253L205.994 461.394C206.012 462.112 206.046 462.83 206.111 463.534C206.131 463.872 206.177 464.215 206.202 464.552C206.169 465.037 206.136 465.522 206.111 466.01C206.023 467.598 205.973 469.24 205.973 470.916C205.973 472.325 205.98 473.788 206.111 475.197C206.257 477.582 206.542 479.962 206.913 482.347L206.89 482.509L206.317 487.23L206.066 490.892C206.007 492.12 205.973 493.355 205.973 494.588V495.352C205.67 496.186 205.5 497.064 205.24 497.898L204.657 499.922C203.36 504.67 202.482 509.548 202.1 514.489C201.925 516.694 201.825 518.858 201.825 521.107L201.904 523.734C201.952 524.608 202.015 525.48 202.077 526.36C201.914 528.486 201.825 530.575 201.825 532.747C201.825 534.732 202.014 536.686 202.146 538.671C202.307 540.735 202.509 542.798 202.787 544.849C202.209 548.663 201.825 552.529 201.825 556.396C201.825 558.476 201.919 560.539 202.077 562.574C201.936 564.392 201.825 566.212 201.825 568.035L201.865 570.539C201.947 573.034 202.149 575.502 202.444 577.916C203.448 586.206 205.762 594.189 209.343 601.774C209.542 602.205 209.776 602.624 209.984 603.047C209.729 605.824 209.595 608.655 209.595 611.516V612.094C209.595 613.842 209.675 615.586 209.801 617.324C209.681 619.254 209.618 621.212 209.618 623.178V623.734C209.618 624.093 209.635 624.463 209.64 624.821C206.04 630.738 203.248 637.062 201.343 643.773C200.558 646.593 199.944 649.5 199.464 652.451C198.721 657.082 198.295 661.86 198.295 666.844C198.295 668.806 198.399 670.765 198.547 672.722C198.421 674.613 198.295 676.529 198.295 678.484C198.295 682.307 198.594 686.129 199.143 689.915C198.578 693.95 198.295 698.044 198.295 702.133C198.295 704.064 198.369 705.976 198.501 707.872C198.372 709.834 198.295 711.804 198.295 713.772C198.295 719.795 199.633 728.942 200.931 734.687C202.468 740.247 204.648 745.632 207.417 750.82C208.772 753.378 210.274 755.893 211.978 758.363C213.55 760.656 215.207 762.912 216.998 765.028C220.141 768.818 223.627 772.219 227.381 775.348C229.912 777.463 232.541 779.488 235.334 781.295C237.65 787.779 240.726 793.833 244.571 799.391C248.546 805.21 253.352 810.501 258.942 815.219C272.539 826.713 288.475 832.904 306.323 833.634L309.917 833.708C328.016 833.707 343.551 828.392 357.335 817.917L360.066 815.751C372.474 805.518 381.179 792.805 385.897 777.94C396.161 764.709 401.751 749.354 402.537 732.331C402.538 731.852 402.628 731.374 402.629 730.896L403.775 729.114C406.35 725.323 408.522 721.391 410.399 717.336C411.185 715.617 411.898 713.895 412.553 712.176C415.827 703.402 417.526 694.055 417.527 684.269C417.527 682.171 417.418 680.085 417.275 678.021C417.392 676.234 417.527 674.424 417.527 672.606C417.527 668.937 417.278 665.318 416.84 661.753ZM200.969 734.866C200.956 734.808 200.944 734.746 200.931 734.687C200.908 734.607 200.881 734.528 200.859 734.447L200.969 734.866ZM200.083 731.359C200.317 732.395 200.58 733.423 200.859 734.447L200.083 731.359ZM800.574 360.767C800.574 362.763 800.457 364.697 800.34 366.427C800.451 368.187 800.574 370.255 800.574 372.406C800.574 375.807 800.362 379.204 800.015 382.501C799.948 383.146 799.831 383.818 799.743 384.435C800.201 388.05 800.574 391.967 800.574 396.055C800.574 397.465 800.518 398.858 800.45 400.197C801.023 402.239 801.502 404.239 801.905 406.176L802.43 408.857L802.443 408.922C803.488 414.648 804.099 420.633 804.099 426.767C804.098 428.796 803.99 430.742 803.872 432.5C803.994 434.328 804.099 436.327 804.099 438.407C804.099 441.406 803.928 444.347 803.644 447.216C805.846 455.14 807.078 463.354 807.078 471.748C807.078 471.9 807.066 472.052 807.065 472.203C808.803 473.717 810.482 475.296 812.096 476.922C815.526 480.333 818.683 484.032 821.555 487.945C833.631 504.309 839.745 523.239 839.745 543.741C839.744 545.567 839.66 547.358 839.55 549.11C839.679 551.161 839.764 553.254 839.764 555.381C839.764 559.698 839.382 563.811 838.92 567.572C839.376 571.213 839.699 575.054 839.699 579.03C839.699 581.128 839.601 583.151 839.485 585.067C839.608 586.797 839.719 588.692 839.719 590.669C839.718 598.04 838.952 605.313 837.323 612.417C838.075 617.344 838.53 622.465 838.531 627.711C838.531 629.826 838.407 631.861 838.277 633.703C838.385 635.256 838.53 637.302 838.531 639.351C838.531 643.281 838.232 647.148 837.758 650.899C838.242 654.843 838.53 658.884 838.531 663C838.531 665.009 838.43 666.939 838.316 668.732C838.429 670.568 838.53 672.564 838.531 674.639C838.531 683.135 837.409 691.369 835.265 699.256L835.259 699.288C833.351 706.24 830.587 712.944 827.034 719.27C822.78 738.457 813.052 755.033 798.159 768.295C780.747 783.818 759.873 791.765 736.65 791.769C735.845 791.769 735.071 791.732 734.352 791.717C724.234 795.223 714.042 797.156 703.965 797.157C678.565 797.157 656.261 787.755 638.249 769.574C628.753 759.986 621.672 749.115 617.093 737.115C614.47 730.27 612.688 723.119 611.75 715.699C607.821 723.693 602.693 731.15 596.397 737.998L596.352 738.044L596.306 738.096C596.232 738.175 594.597 739.985 593.788 740.803L593.541 741.056L593.281 741.289C593.076 741.476 592.886 741.644 592.749 741.763C592.683 741.821 592.616 741.877 592.567 741.919C592.513 741.966 592.473 742.005 592.437 742.036C592.276 742.177 592.354 742.114 592.502 741.965L592.256 742.211C590.544 743.85 588.561 745.722 586.433 747.495L586.413 747.515C570.786 760.485 552.444 767.488 532.156 768.314L528.072 768.399C516.207 768.399 504.533 766.096 493.374 761.557C472.505 758.709 454.188 749.429 439.136 734.233C433.636 728.692 428.989 722.701 425.179 716.329C425.119 716.492 425.071 716.659 425.01 716.822L424.978 716.907C424.231 718.869 423.407 720.863 422.492 722.866L422.466 722.924C420.543 727.078 418.292 731.169 415.669 735.187C414.437 753.215 408.446 769.761 397.817 784.18C392.147 800.622 382.218 814.713 368.526 826.006L368.52 826.012C351.708 839.854 332.345 846.999 309.919 847C287.529 846.998 267.308 839.696 250.365 825.376C243.896 819.917 238.269 813.738 233.59 806.888C229.915 801.565 226.862 795.872 224.405 789.886C222.448 788.459 220.597 787.008 218.867 785.563L215.693 782.804C212.592 779.997 209.628 776.95 206.851 773.612C204.683 771.049 202.756 768.415 201.034 765.906C199.008 762.968 197.238 760.009 195.666 757.038L195.672 757.032C192.466 751.017 189.902 744.703 188.09 738.115L188.077 738.122L187.96 737.667C187.66 736.551 187.373 735.429 187.116 734.298L187.279 734.259C186.267 728.985 185.328 722.322 185.071 716.673L185 713.771C185 711.753 185.074 709.771 185.188 707.838C185.076 705.973 185 704.069 185 702.132L185.058 698.607C185.159 695.711 185.406 692.821 185.753 689.947C185.281 686.184 185 682.354 185 678.482L185.097 674.925C185.136 674.127 185.181 673.368 185.227 672.666C185.103 670.827 185 668.868 185 666.843L185.091 662.578C185.269 658.364 185.704 654.295 186.337 650.347L186.344 650.315C186.889 646.962 187.601 643.57 188.538 640.207L188.551 640.143C190.435 633.505 193.068 627.206 196.354 621.258C196.378 619.945 196.42 618.639 196.49 617.344C196.383 615.663 196.302 613.903 196.302 612.092V611.514C196.302 609.513 196.366 607.527 196.477 605.561C192.784 597.266 190.341 588.558 189.246 579.53L188.947 576.725C188.682 573.899 188.531 570.992 188.531 568.033C188.532 566.079 188.638 564.206 188.759 562.515C188.626 560.535 188.532 558.492 188.531 556.4C188.532 552.358 188.887 548.433 189.388 544.728C189.189 543.017 189.016 541.337 188.889 539.703L188.882 539.625V539.547C188.787 538.104 188.531 535.313 188.531 532.744C188.532 530.563 188.619 528.466 188.759 526.382C188.654 524.882 188.532 523.027 188.531 521.111C188.532 518.458 188.645 515.933 188.843 513.438C189.36 506.783 190.637 500.289 192.504 494.073L192.53 494.002L192.55 493.937C192.543 493.958 192.549 493.93 192.582 493.807C192.621 493.663 192.647 493.589 192.699 493.392C192.734 490.89 192.861 488.425 193.076 486.037L193.102 485.777C193.218 484.72 193.365 483.584 193.511 482.421C193.226 480.343 192.977 478.205 192.842 476.013L192.848 476.007C192.689 474.051 192.68 472.185 192.68 470.917C192.68 468.978 192.736 467.092 192.835 465.283C192.846 465.091 192.863 464.902 192.874 464.718C192.865 464.601 192.85 464.477 192.842 464.348L192.848 464.341C192.69 462.388 192.68 460.524 192.68 459.252C192.68 457.315 192.736 455.445 192.835 453.643C194.163 428.389 204.693 406.855 223.69 391.466L223.736 391.427C224.116 391.121 224.511 390.826 224.904 390.518C225.69 376.256 229.422 362.905 236.031 350.756L236.077 350.678L236.122 350.594C236.659 349.64 237.295 348.501 238.011 347.283C238.84 332.947 242.789 319.458 249.742 307.126L249.755 307.106C251.336 304.313 253.08 301.506 255.045 298.739L255.091 298.674C258.633 293.746 262.578 289.087 266.957 284.866L268.866 283.081C272.957 279.328 277.361 275.977 282.057 273.038C282.621 271.997 283.227 270.933 283.868 269.864C289.983 259.647 297.871 251.073 307.362 244.105C311.173 241.28 315.239 238.705 319.605 236.418C323.365 231.057 327.544 226.179 332.173 221.812L332.186 221.799C344.996 209.759 360.705 202.203 378.517 199.377C383.863 198.513 389.368 198.079 395.019 198.078C413.189 198.078 429.878 202.984 444.589 212.613L447.504 214.606L447.517 214.613C450.489 216.728 453.531 219.088 456.541 221.812L456.573 221.845C464.749 229.293 471.533 237.852 476.658 247.422L477.664 249.343L477.684 249.395L477.71 249.441L477.755 249.532C477.999 250.024 478.236 250.536 478.463 251.031L479.502 253.232C479.781 253.846 480.046 254.467 480.313 255.088C488.601 259.751 496.001 265.689 502.547 272.635L503.852 273.979L505.715 276.005L505.76 276.057L505.799 276.115C508.544 279.369 511.066 282.761 513.349 286.3C517.803 279.479 523.142 273.311 529.358 267.864C530.289 265.313 531.313 262.825 532.428 260.399C541.033 241.425 555.219 226.658 574.04 217.106L574.066 217.093C576.806 215.71 579.626 214.437 582.57 213.263C585.255 211.3 587.99 209.494 590.737 207.842C594.563 203.431 598.738 199.473 603.201 195.969C613.888 187.577 626.13 181.926 639.561 179.09H639.58C646.18 177.707 652.997 177 660.048 177L662.457 177.026C686.478 177.579 707.57 186.422 724.628 203.136L726.322 204.83L726.341 204.856C738.804 217.715 747.118 232.853 750.815 249.856L753.775 252.414L753.814 252.446L753.853 252.485C767.606 265.028 776.825 280.845 780.923 298.94C781.346 300.749 781.684 302.533 781.975 304.289C794.36 320.415 800.573 339.558 800.574 360.767Z" fill="#FAFAFA"/>
</g>
<defs>
<clipPath id="clip0_1766_42982">
<rect width="1024" height="1024" fill="white"/>
</clipPath>
</defs>
</svg>
